<svg xmlns="http://www.w3.org/2000/svg" viewBox="0 0 900 1176" width="900" height="1176"><defs><pattern id="mass-1" width="10" height="10" patternUnits="userSpaceOnUse" patternTransform="scale(1)"><rect width="10" height="10" fill="#fbfcf7"/><rect width="10" height="10" fill="#315f49" fill-opacity=".18"/><path d="M0 10L10 0" fill="none" stroke="#315f49" stroke-width="1.5"/></pattern><pattern id="mass-2" width="10" height="10" patternUnits="userSpaceOnUse" patternTransform="scale(1)"><rect width="10" height="10" fill="#fbfcf7"/><rect width="10" height="10" fill="#71803a" fill-opacity=".18"/><path d="M0 0L10 10" fill="none" stroke="#71803a" stroke-width="1.5"/></pattern><pattern id="mass-3" width="10" height="10" patternUnits="userSpaceOnUse" patternTransform="scale(1)"><rect width="10" height="10" fill="#fbfcf7"/><rect width="10" height="10" fill="#b05e7e" fill-opacity=".18"/><path d="M0 5H10" fill="none" stroke="#b05e7e" stroke-width="1.5"/></pattern><pattern id="mass-4" width="10" height="10" patternUnits="userSpaceOnUse" patternTransform="scale(1)"><rect width="10" height="10" fill="#fbfcf7"/><rect width="10" height="10" fill="#4b8290" fill-opacity=".18"/><path d="M5 0V10" fill="none" stroke="#4b8290" stroke-width="1.5"/></pattern><pattern id="mass-5" width="10" height="10" patternUnits="userSpaceOnUse" patternTransform="scale(1)"><rect width="10" height="10" fill="#fbfcf7"/><rect width="10" height="10" fill="#8b6b45" fill-opacity=".18"/><path d="M0 5H10M5 0V10" fill="none" stroke="#8b6b45" stroke-width="1.5"/></pattern><pattern id="mass-6" width="10" height="10" patternUnits="userSpaceOnUse" patternTransform="scale(1)"><rect width="10" height="10" fill="#fbfcf7"/><rect width="10" height="10" fill="#71649a" fill-opacity=".18"/><path d="M0 0L10 10M0 10L10 0" fill="none" stroke="#71649a" stroke-width="1.5"/></pattern><pattern id="mass-7" width="10" height="10" patternUnits="userSpaceOnUse" patternTransform="scale(1)"><rect width="10" height="10" fill="#fbfcf7"/><rect width="10" height="10" fill="#aa764b" fill-opacity=".18"/><path d="M0 8L5 3L10 8" fill="none" stroke="#aa764b" stroke-width="1.5"/></pattern><pattern id="mass-8" width="10" height="10" patternUnits="userSpaceOnUse" patternTransform="scale(1)"><rect width="10" height="10" fill="#fbfcf7"/><rect width="10" height="10" fill="#4d8059" fill-opacity=".18"/><path d="M0 3H4M6 7H10" fill="none" stroke="#4d8059" stroke-width="1.5"/></pattern><pattern id="mass-9" width="10" height="10" patternUnits="userSpaceOnUse" patternTransform="scale(1)"><rect width="10" height="10" fill="#fbfcf7"/><rect width="10" height="10" fill="#a14955" fill-opacity=".18"/><circle cx="5" cy="5" r="1.8" fill="#a14955"/></pattern><pattern id="mass-10" width="10" height="10" patternUnits="userSpaceOnUse" patternTransform="scale(1)"><rect width="10" height="10" fill="#fbfcf7"/><rect width="10" height="10" fill="#557ba5" fill-opacity=".18"/><path d="M0 10L10 0" fill="none" stroke="#557ba5" stroke-width="1.5"/></pattern><pattern id="mass-11" width="10" height="10" patternUnits="userSpaceOnUse" patternTransform="scale(1)"><rect width="10" height="10" fill="#fbfcf7"/><rect width="10" height="10" fill="#85863a" fill-opacity=".18"/><path d="M0 0L10 10" fill="none" stroke="#85863a" stroke-width="1.5"/></pattern><pattern id="mass-12" width="10" height="10" patternUnits="userSpaceOnUse" patternTransform="scale(1)"><rect width="10" height="10" fill="#fbfcf7"/><rect width="10" height="10" fill="#765a78" fill-opacity=".18"/><path d="M0 5H10" fill="none" stroke="#765a78" stroke-width="1.5"/></pattern><pattern id="mass-13" width="10" height="10" patternUnits="userSpaceOnUse" patternTransform="scale(1)"><rect width="10" height="10" fill="#fbfcf7"/><rect width="10" height="10" fill="#39776c" fill-opacity=".18"/><path d="M5 0V10" fill="none" stroke="#39776c" stroke-width="1.5"/></pattern><pattern id="mass-14" width="10" height="10" patternUnits="userSpaceOnUse" patternTransform="scale(1)"><rect width="10" height="10" fill="#fbfcf7"/><rect width="10" height="10" fill="#ae8154" fill-opacity=".18"/><path d="M0 5H10M5 0V10" fill="none" stroke="#ae8154" stroke-width="1.5"/></pattern><pattern id="mass-15" width="10" height="10" patternUnits="userSpaceOnUse" patternTransform="scale(1)"><rect width="10" height="10" fill="#fbfcf7"/><rect width="10" height="10" fill="#596d41" fill-opacity=".18"/><path d="M0 0L10 10M0 10L10 0" fill="none" stroke="#596d41" stroke-width="1.5"/></pattern><pattern id="mass-16" width="10" height="10" patternUnits="userSpaceOnUse" patternTransform="scale(1)"><rect width="10" height="10" fill="#fbfcf7"/><rect width="10" height="10" fill="#bd6e60" fill-opacity=".18"/><path d="M0 8L5 3L10 8" fill="none" stroke="#bd6e60" stroke-width="1.5"/></pattern><pattern id="mass-17" width="10" height="10" patternUnits="userSpaceOnUse" patternTransform="scale(1)"><rect width="10" height="10" fill="#fbfcf7"/><rect width="10" height="10" fill="#55736e" fill-opacity=".18"/><path d="M0 3H4M6 7H10" fill="none" stroke="#55736e" stroke-width="1.5"/></pattern></defs><rect width="900" height="1176" fill="#fbfcf7"/><g font-family="Segoe UI, Arial, sans-serif" fill="#183d32"><text x="50" y="43" font-size="25" font-weight="700">Plantscapes · concept planting plan</text><text x="50" y="67" font-size="12">MOCK DATA · diagram with consistent plan proportions · not construction documentation</text><polygon points="50.3,544.6 833.6,544.6 833.6,104.7 50.3,104.7" fill="#e5eedc" stroke="#8aab78"/><polygon points="55.7,544.6 66.7,544.6 66.7,434.7 55.7,434.7" fill="url(#mass-3)" stroke="#b05e7e" stroke-width=".4"/><polygon points="72.2,544.6 132.7,544.6 132.7,434.7 72.2,434.7" fill="url(#mass-4)" stroke="#4b8290" stroke-width=".4"/><polygon points="138.2,544.6 160.2,544.6 160.2,434.7 138.2,434.7" fill="url(#mass-5)" stroke="#8b6b45" stroke-width=".4"/><polygon points="132.7,544.6 138.2,544.6 138.2,434.7 132.7,434.7" fill="url(#mass-6)" stroke="#71649a" stroke-width=".4"/><polygon points="172.4,544.6 176.5,544.6 176.5,434.7 172.4,434.7" fill="url(#mass-4)" stroke="#4b8290" stroke-width=".4"/><polygon points="160.2,544.6 168.3,544.6 168.3,434.7 160.2,434.7" fill="url(#mass-7)" stroke="#aa764b" stroke-width=".4"/><polygon points="180.5,544.6 270.1,544.6 270.1,434.7 180.5,434.7" fill="url(#mass-5)" stroke="#8b6b45" stroke-width=".4"/><polygon points="176.5,544.6 180.5,544.6 180.5,434.7 176.5,434.7" fill="url(#mass-6)" stroke="#71649a" stroke-width=".4"/><polygon points="289.0,544.6 361.1,544.6 361.1,434.7 289.0,434.7" fill="url(#mass-5)" stroke="#8b6b45" stroke-width=".4"/><polygon points="285.2,544.6 289.0,544.6 289.0,434.7 285.2,434.7" fill="url(#mass-8)" stroke="#4d8059" stroke-width=".4"/><polygon points="270.1,544.6 277.7,544.6 277.7,434.7 270.1,434.7" fill="url(#mass-7)" stroke="#aa764b" stroke-width=".4"/><polygon points="361.1,544.6 380.0,544.6 380.0,434.7 361.1,434.7" fill="url(#mass-9)" stroke="#a14955" stroke-width=".4"/><polygon points="380.0,544.6 390.0,544.6 390.0,434.7 380.0,434.7" fill="url(#mass-10)" stroke="#557ba5" stroke-width=".4"/><polygon points="564.7,544.6 599.8,544.6 599.8,434.7 564.7,434.7" fill="url(#mass-9)" stroke="#a14955" stroke-width=".4"/><polygon points="542.7,544.6 564.7,544.6 564.7,434.7 542.7,434.7" fill="url(#mass-5)" stroke="#8b6b45" stroke-width=".4"/><polygon points="511.9,544.6 516.3,544.6 516.3,434.7 511.9,434.7" fill="url(#mass-11)" stroke="#85863a" stroke-width=".4"/><polygon points="623.0,544.6 634.5,544.6 634.5,434.7 623.0,434.7" fill="url(#mass-11)" stroke="#85863a" stroke-width=".4"/><polygon points="617.2,544.6 623.0,544.6 623.0,434.7 617.2,434.7" fill="url(#mass-12)" stroke="#765a78" stroke-width=".4"/><polygon points="704.0,544.6 709.8,544.6 709.8,434.7 704.0,434.7" fill="url(#mass-5)" stroke="#8b6b45" stroke-width=".4"/><polygon points="714.5,544.6 791.0,544.6 791.0,434.7 714.5,434.7" fill="url(#mass-10)" stroke="#557ba5" stroke-width=".4"/><polygon points="791.0,544.6 800.6,544.6 800.6,434.7 791.0,434.7" fill="url(#mass-8)" stroke="#4d8059" stroke-width=".4"/><polygon points="390.0,544.6 400.0,544.6 400.0,434.7 390.0,434.7" fill="url(#mass-5)" stroke="#8b6b45" stroke-width=".4"/><polygon points="800.6,544.6 805.3,544.6 805.3,434.7 800.6,434.7" fill="url(#mass-13)" stroke="#39776c" stroke-width=".4"/><polygon points="507.5,544.6 511.9,544.6 511.9,434.7 507.5,434.7" fill="url(#mass-13)" stroke="#39776c" stroke-width=".4"/><polygon points="498.7,544.6 507.5,544.6 507.5,434.7 498.7,434.7" fill="url(#mass-10)" stroke="#557ba5" stroke-width=".4"/><polygon points="520.7,544.6 542.7,544.6 542.7,434.7 520.7,434.7" fill="url(#mass-6)" stroke="#71649a" stroke-width=".4"/><polygon points="640.3,544.6 704.0,544.6 704.0,434.7 640.3,434.7" fill="url(#mass-6)" stroke="#71649a" stroke-width=".4"/><polygon points="599.8,544.6 617.2,544.6 617.2,434.7 599.8,434.7" fill="url(#mass-14)" stroke="#ae8154" stroke-width=".4"/><polygon points="634.5,544.6 640.3,544.6 640.3,434.7 634.5,434.7" fill="url(#mass-4)" stroke="#4b8290" stroke-width=".4"/><polygon points="814.9,544.6 819.7,544.6 819.7,434.7 814.9,434.7" fill="url(#mass-5)" stroke="#8b6b45" stroke-width=".4"/><polygon points="805.3,544.6 810.1,544.6 810.1,434.7 805.3,434.7" fill="url(#mass-11)" stroke="#85863a" stroke-width=".4"/><polygon points="66.7,544.6 72.2,544.6 72.2,434.7 66.7,434.7" fill="url(#mass-11)" stroke="#85863a" stroke-width=".4"/><polygon points="277.7,544.6 281.5,544.6 281.5,434.7 277.7,434.7" fill="url(#mass-10)" stroke="#557ba5" stroke-width=".4"/><polygon points="516.3,544.6 520.7,544.6 520.7,434.7 516.3,434.7" fill="url(#mass-4)" stroke="#4b8290" stroke-width=".4"/><polygon points="50.3,544.6 55.7,544.6 55.7,434.7 50.3,434.7" fill="url(#mass-14)" stroke="#ae8154" stroke-width=".4"/><polygon points="489.9,544.6 498.7,544.6 498.7,434.7 489.9,434.7" fill="url(#mass-14)" stroke="#ae8154" stroke-width=".4"/><polygon points="709.8,544.6 714.5,544.6 714.5,434.7 709.8,434.7" fill="url(#mass-14)" stroke="#ae8154" stroke-width=".4"/><polygon points="810.1,544.6 814.9,544.6 814.9,434.7 810.1,434.7" fill="url(#mass-6)" stroke="#71649a" stroke-width=".4"/><polygon points="168.3,544.6 172.4,544.6 172.4,434.7 168.3,434.7" fill="url(#mass-14)" stroke="#ae8154" stroke-width=".4"/><polygon points="281.5,544.6 285.2,544.6 285.2,434.7 281.5,434.7" fill="url(#mass-3)" stroke="#b05e7e" stroke-width=".4"/><polygon points="115.2,434.7 140.2,434.7 140.2,324.8 115.2,324.8" fill="url(#mass-6)" stroke="#71649a" stroke-width=".4"/><polygon points="140.2,434.7 160.2,434.7 160.2,324.8 140.2,324.8" fill="url(#mass-5)" stroke="#8b6b45" stroke-width=".4"/><polygon points="182.2,434.7 262.8,434.7 262.8,324.8 182.2,324.8" fill="url(#mass-6)" stroke="#71649a" stroke-width=".4"/><polygon points="262.8,434.7 270.1,434.7 270.1,324.8 262.8,324.8" fill="url(#mass-5)" stroke="#8b6b45" stroke-width=".4"/><polygon points="322.2,434.7 345.3,434.7 345.3,324.8 322.2,324.8" fill="url(#mass-5)" stroke="#8b6b45" stroke-width=".4"/><polygon points="380.0,434.7 390.0,434.7 390.0,324.8 380.0,324.8" fill="url(#mass-10)" stroke="#557ba5" stroke-width=".4"/><polygon points="578.9,434.7 599.8,434.7 599.8,324.8 578.9,324.8" fill="url(#mass-9)" stroke="#a14955" stroke-width=".4"/><polygon points="489.9,434.7 505.6,434.7 505.6,324.8 489.9,324.8" fill="url(#mass-14)" stroke="#ae8154" stroke-width=".4"/><polygon points="788.3,434.7 793.5,434.7 793.5,324.8 788.3,324.8" fill="url(#mass-6)" stroke="#71649a" stroke-width=".4"/><polygon points="793.5,434.7 819.7,434.7 819.7,324.8 793.5,324.8" fill="url(#mass-5)" stroke="#8b6b45" stroke-width=".4"/><polygon points="783.0,434.7 788.3,434.7 788.3,324.8 783.0,324.8" fill="url(#mass-10)" stroke="#557ba5" stroke-width=".4"/><polygon points="110.2,434.7 115.2,434.7 115.2,324.8 110.2,324.8" fill="url(#mass-4)" stroke="#4b8290" stroke-width=".4"/><polygon points="160.2,434.7 182.2,434.7 182.2,324.8 160.2,324.8" fill="url(#mass-14)" stroke="#ae8154" stroke-width=".4"/><polygon points="345.3,434.7 380.0,434.7 380.0,324.8 345.3,324.8" fill="url(#mass-9)" stroke="#a14955" stroke-width=".4"/><polygon points="505.6,434.7 510.9,434.7 510.9,324.8 505.6,324.8" fill="url(#mass-10)" stroke="#557ba5" stroke-width=".4"/><polygon points="510.9,434.7 516.1,434.7 516.1,324.8 510.9,324.8" fill="url(#mass-13)" stroke="#39776c" stroke-width=".4"/><polygon points="526.6,434.7 558.0,434.7 558.0,324.8 526.6,324.8" fill="url(#mass-6)" stroke="#71649a" stroke-width=".4"/><polygon points="659.0,434.7 709.8,434.7 709.8,324.8 659.0,324.8" fill="url(#mass-6)" stroke="#71649a" stroke-width=".4"/><polygon points="70.2,434.7 110.2,434.7 110.2,324.8 70.2,324.8" fill="url(#mass-13)" stroke="#39776c" stroke-width=".4"/><polygon points="281.7,434.7 322.2,434.7 322.2,324.8 281.7,324.8" fill="url(#mass-6)" stroke="#71649a" stroke-width=".4"/><polygon points="558.0,434.7 578.9,434.7 578.9,324.8 558.0,324.8" fill="url(#mass-5)" stroke="#8b6b45" stroke-width=".4"/><polygon points="735.9,434.7 783.0,434.7 783.0,324.8 735.9,324.8" fill="url(#mass-14)" stroke="#ae8154" stroke-width=".4"/><polygon points="50.3,434.7 60.2,434.7 60.2,324.8 50.3,324.8" fill="url(#mass-16)" stroke="#bd6e60" stroke-width=".4"/><polygon points="599.8,434.7 659.0,434.7 659.0,324.8 599.8,324.8" fill="url(#mass-14)" stroke="#ae8154" stroke-width=".4"/><polygon points="709.8,434.7 735.9,434.7 735.9,324.8 709.8,324.8" fill="url(#mass-7)" stroke="#aa764b" stroke-width=".4"/><polygon points="60.2,434.7 65.2,434.7 65.2,324.8 60.2,324.8" fill="url(#mass-14)" stroke="#ae8154" stroke-width=".4"/><polygon points="390.0,434.7 400.0,434.7 400.0,324.8 390.0,324.8" fill="url(#mass-5)" stroke="#8b6b45" stroke-width=".4"/><polygon points="516.1,434.7 526.6,434.7 526.6,324.8 516.1,324.8" fill="url(#mass-4)" stroke="#4b8290" stroke-width=".4"/><polygon points="270.1,434.7 281.7,434.7 281.7,324.8 270.1,324.8" fill="url(#mass-14)" stroke="#ae8154" stroke-width=".4"/><polygon points="65.2,434.7 70.2,434.7 70.2,324.8 65.2,324.8" fill="url(#mass-10)" stroke="#557ba5" stroke-width=".4"/><polygon points="380.0,324.8 388.5,324.8 388.5,214.9 380.0,214.9" fill="url(#mass-10)" stroke="#557ba5" stroke-width=".4"/><polygon points="567.3,324.8 599.8,324.8 599.8,214.9 567.3,214.9" fill="url(#mass-9)" stroke="#a14955" stroke-width=".4"/><polygon points="514.3,324.8 530.6,324.8 530.6,214.9 514.3,214.9" fill="url(#mass-4)" stroke="#4b8290" stroke-width=".4"/><polygon points="127.2,324.8 160.2,324.8 160.2,214.9 127.2,214.9" fill="url(#mass-5)" stroke="#8b6b45" stroke-width=".4"/><polygon points="105.2,324.8 127.2,324.8 127.2,214.9 105.2,214.9" fill="url(#mass-6)" stroke="#71649a" stroke-width=".4"/><polygon points="180.8,324.8 263.2,324.8 263.2,214.9 180.8,214.9" fill="url(#mass-6)" stroke="#71649a" stroke-width=".4"/><polygon points="304.8,324.8 351.1,324.8 351.1,214.9 304.8,214.9" fill="url(#mass-6)" stroke="#71649a" stroke-width=".4"/><polygon points="351.1,324.8 362.6,324.8 362.6,214.9 351.1,214.9" fill="url(#mass-5)" stroke="#8b6b45" stroke-width=".4"/><polygon points="599.8,324.8 631.2,324.8 631.2,214.9 599.8,214.9" fill="url(#mass-14)" stroke="#ae8154" stroke-width=".4"/><polygon points="719.7,324.8 729.7,324.8 729.7,214.9 719.7,214.9" fill="url(#mass-14)" stroke="#ae8154" stroke-width=".4"/><polygon points="739.7,324.8 744.7,324.8 744.7,214.9 739.7,214.9" fill="url(#mass-15)" stroke="#596d41" stroke-width=".4"/><polygon points="759.7,324.8 764.7,324.8 764.7,214.9 759.7,214.9" fill="url(#mass-8)" stroke="#4d8059" stroke-width=".4"/><polygon points="50.3,324.8 55.7,324.8 55.7,214.9 50.3,214.9" fill="url(#mass-14)" stroke="#ae8154" stroke-width=".4"/><polygon points="388.5,324.8 405.4,324.8 405.4,214.9 388.5,214.9" fill="url(#mass-13)" stroke="#39776c" stroke-width=".4"/><polygon points="489.9,324.8 494.0,324.8 494.0,214.9 489.9,214.9" fill="url(#mass-15)" stroke="#596d41" stroke-width=".4"/><polygon points="784.7,324.8 819.7,324.8 819.7,214.9 784.7,214.9" fill="url(#mass-5)" stroke="#8b6b45" stroke-width=".4"/><polygon points="72.2,324.8 83.2,324.8 83.2,214.9 72.2,214.9" fill="url(#mass-13)" stroke="#39776c" stroke-width=".4"/><polygon points="55.7,324.8 61.2,324.8 61.2,214.9 55.7,214.9" fill="url(#mass-15)" stroke="#596d41" stroke-width=".4"/><polygon points="287.4,324.8 299.0,324.8 299.0,214.9 287.4,214.9" fill="url(#mass-13)" stroke="#39776c" stroke-width=".4"/><polygon points="494.0,324.8 514.3,324.8 514.3,214.9 494.0,214.9" fill="url(#mass-13)" stroke="#39776c" stroke-width=".4"/><polygon points="688.8,324.8 709.8,324.8 709.8,214.9 688.8,214.9" fill="url(#mass-5)" stroke="#8b6b45" stroke-width=".4"/><polygon points="636.5,324.8 641.7,324.8 641.7,214.9 636.5,214.9" fill="url(#mass-15)" stroke="#596d41" stroke-width=".4"/><polygon points="714.7,324.8 719.7,324.8 719.7,214.9 714.7,214.9" fill="url(#mass-7)" stroke="#aa764b" stroke-width=".4"/><polygon points="160.2,324.8 180.8,324.8 180.8,214.9 160.2,214.9" fill="url(#mass-14)" stroke="#ae8154" stroke-width=".4"/><polygon points="362.6,324.8 380.0,324.8 380.0,214.9 362.6,214.9" fill="url(#mass-9)" stroke="#a14955" stroke-width=".4"/><polygon points="534.7,324.8 567.3,324.8 567.3,214.9 534.7,214.9" fill="url(#mass-5)" stroke="#8b6b45" stroke-width=".4"/><polygon points="709.8,324.8 714.7,324.8 714.7,214.9 709.8,214.9" fill="url(#mass-16)" stroke="#bd6e60" stroke-width=".4"/><polygon points="88.7,324.8 105.2,324.8 105.2,214.9 88.7,214.9" fill="url(#mass-11)" stroke="#85863a" stroke-width=".4"/><polygon points="61.2,324.8 72.2,324.8 72.2,214.9 61.2,214.9" fill="url(#mass-8)" stroke="#4d8059" stroke-width=".4"/><polygon points="275.9,324.8 281.7,324.8 281.7,214.9 275.9,214.9" fill="url(#mass-14)" stroke="#ae8154" stroke-width=".4"/><polygon points="652.2,324.8 683.6,324.8 683.6,214.9 652.2,214.9" fill="url(#mass-4)" stroke="#4b8290" stroke-width=".4"/><polygon points="641.7,324.8 652.2,324.8 652.2,214.9 641.7,214.9" fill="url(#mass-13)" stroke="#39776c" stroke-width=".4"/><polygon points="779.7,324.8 784.7,324.8 784.7,214.9 779.7,214.9" fill="url(#mass-4)" stroke="#4b8290" stroke-width=".4"/><polygon points="744.7,324.8 759.7,324.8 759.7,214.9 744.7,214.9" fill="url(#mass-3)" stroke="#b05e7e" stroke-width=".4"/><polygon points="281.7,324.8 287.4,324.8 287.4,214.9 281.7,214.9" fill="url(#mass-10)" stroke="#557ba5" stroke-width=".4"/><polygon points="530.6,324.8 534.7,324.8 534.7,214.9 530.6,214.9" fill="url(#mass-6)" stroke="#71649a" stroke-width=".4"/><polygon points="729.7,324.8 739.7,324.8 739.7,214.9 729.7,214.9" fill="url(#mass-10)" stroke="#557ba5" stroke-width=".4"/><polygon points="83.2,324.8 88.7,324.8 88.7,214.9 83.2,214.9" fill="url(#mass-12)" stroke="#765a78" stroke-width=".4"/><polygon points="270.1,324.8 275.9,324.8 275.9,214.9 270.1,214.9" fill="url(#mass-16)" stroke="#bd6e60" stroke-width=".4"/><polygon points="769.7,324.8 779.7,324.8 779.7,214.9 769.7,214.9" fill="url(#mass-11)" stroke="#85863a" stroke-width=".4"/><polygon points="764.7,324.8 769.7,324.8 769.7,214.9 764.7,214.9" fill="url(#mass-13)" stroke="#39776c" stroke-width=".4"/><polygon points="631.2,324.8 636.5,324.8 636.5,214.9 631.2,214.9" fill="url(#mass-10)" stroke="#557ba5" stroke-width=".4"/><polygon points="263.2,324.8 270.1,324.8 270.1,214.9 263.2,214.9" fill="url(#mass-5)" stroke="#8b6b45" stroke-width=".4"/><polygon points="299.0,324.8 304.8,324.8 304.8,214.9 299.0,214.9" fill="url(#mass-4)" stroke="#4b8290" stroke-width=".4"/><polygon points="683.6,324.8 688.8,324.8 688.8,214.9 683.6,214.9" fill="url(#mass-6)" stroke="#71649a" stroke-width=".4"/><polyline points="441.9,544.6 441.9,104.7" fill="none" stroke="#9e724b" stroke-width="65.9501600063595" stroke-linejoin="round"/><circle cx="214.7491435613115" cy="326.8557528657433" r="110.79626881068396" fill="none" stroke="#765c3a" stroke-dasharray="3 4" stroke-width=".8"/><circle cx="214.7491435613115" cy="326.8557528657433" r="5" fill="#315f49" stroke="#263b2d" stroke-width="1.8"/><text x="221.7491435613115" y="321.8557528657433" font-size="10" font-weight="700">1</text><circle cx="644.0083797399038" cy="418.35494716965076" r="110.79626881068396" fill="none" stroke="#765c3a" stroke-dasharray="3 4" stroke-width=".8"/><circle cx="644.0083797399038" cy="418.35494716965076" r="5" fill="#71803a" stroke="#263b2d" stroke-width="1.8"/><text x="651.0083797399038" y="413.35494716965076" font-size="10" font-weight="700">2</text><circle cx="55.074590460584545" cy="537.3442364162407" r="2" fill="#b05e7e" stroke="#fff" stroke-width="1"/><circle cx="292.4523537038608" cy="526.532705049888" r="2" fill="#8b6b45" stroke="#fff" stroke-width="1"/><circle cx="349.1379593961474" cy="506.6751128429025" r="2" fill="#8b6b45" stroke="#fff" stroke-width="1"/><circle cx="508.33883564589604" cy="481.168949861745" r="2" fill="#557ba5" stroke="#fff" stroke-width="1"/><circle cx="610.6289424897269" cy="464.2844536759813" r="2" fill="#71649a" stroke="#fff" stroke-width="1"/><circle cx="709.5789910161533" cy="439.7093309976516" r="2" fill="#71649a" stroke="#fff" stroke-width="1"/><circle cx="242.5986804238944" cy="408.24083724636273" r="2" fill="#71649a" stroke="#fff" stroke-width="1"/><circle cx="648.1058459692614" cy="382.5889801362467" r="2" fill="#71649a" stroke="#fff" stroke-width="1"/><circle cx="676.5490431158784" cy="363.0523825608272" r="2" fill="#ae8154" stroke="#fff" stroke-width="1"/><circle cx="386.4311034613635" cy="324.0779121787924" r="2" fill="#557ba5" stroke="#fff" stroke-width="1"/><circle cx="562.8327958876622" cy="306.247572555483" r="2" fill="#596d41" stroke="#fff" stroke-width="1"/><circle cx="817.1730779683251" cy="280.284070138276" r="2" fill="#8b6b45" stroke="#fff" stroke-width="1"/><circle cx="170.08193957714926" cy="251.31341334963295" r="2" fill="#ae8154" stroke="#fff" stroke-width="1"/><circle cx="270.92523319402426" cy="226.811527283732" r="2" fill="#71649a" stroke="#fff" stroke-width="1"/><circle cx="521.8140437677268" cy="203.31937197806806" r="2" fill="#a14955" stroke="#fff" stroke-width="1"/><circle cx="582.1840758134892" cy="184.89223162641707" r="2" fill="#4d8059" stroke="#fff" stroke-width="1"/><circle cx="710.5387471855737" cy="157.46711282316642" r="2" fill="#b05e7e" stroke="#fff" stroke-width="1"/><circle cx="253.870778999293" cy="124.14588789490998" r="2" fill="#71649a" stroke="#fff" stroke-width="1"/><circle cx="515.5555386795695" cy="107.77716462290657" r="2" fill="#39776c" stroke="#fff" stroke-width="1"/><g><rect x="743.2214971395556" y="261.8139059553324" width="18" height="16" rx="3" fill="#fff" stroke="#b05e7e"/><text x="752.2214971395556" y="273.8139059553324" text-anchor="middle" font-size="11">3</text></g><g><rect x="93.46253434814795" y="481.647772647728" width="18" height="16" rx="3" fill="#fff" stroke="#4b8290"/><text x="102.46253434814795" y="493.647772647728" text-anchor="middle" font-size="11">4</text></g><g><rect x="216.3048848549932" y="481.647772647728" width="18" height="16" rx="3" fill="#fff" stroke="#8b6b45"/><text x="225.3048848549932" y="493.647772647728" text-anchor="middle" font-size="11">5</text></g><g><rect x="212.99719936051542" y="261.8139059553324" width="18" height="16" rx="3" fill="#fff" stroke="#71649a"/><text x="221.99719936051542" y="273.8139059553324" text-anchor="middle" font-size="11">6</text></g><g><rect x="713.8389402820362" y="371.73083930153024" width="18" height="16" rx="3" fill="#fff" stroke="#aa764b"/><text x="722.8389402820362" y="383.73083930153024" text-anchor="middle" font-size="11">7</text></g><g><rect x="786.7755389074525" y="481.647772647728" width="18" height="16" rx="3" fill="#fff" stroke="#4d8059"/><text x="795.7755389074525" y="493.647772647728" text-anchor="middle" font-size="11">8</text></g><g><rect x="573.2499483949778" y="481.647772647728" width="18" height="16" rx="3" fill="#fff" stroke="#a14955"/><text x="582.2499483949778" y="493.647772647728" text-anchor="middle" font-size="11">9</text></g><g><rect x="743.7645649902536" y="481.647772647728" width="18" height="16" rx="3" fill="#fff" stroke="#557ba5"/><text x="752.7645649902536" y="493.647772647728" text-anchor="middle" font-size="11">10</text></g><g><rect x="87.96668768181894" y="261.8139059553324" width="18" height="16" rx="3" fill="#fff" stroke="#85863a"/><text x="96.96668768181894" y="273.8139059553324" text-anchor="middle" font-size="11">11</text></g><g><rect x="611.0845138728505" y="481.647772647728" width="18" height="16" rx="3" fill="#fff" stroke="#765a78"/><text x="620.0845138728505" y="493.647772647728" text-anchor="middle" font-size="11">12</text></g><g><rect x="81.22178495380643" y="371.73083930153024" width="18" height="16" rx="3" fill="#fff" stroke="#39776c"/><text x="90.22178495380643" y="383.73083930153024" text-anchor="middle" font-size="11">13</text></g><g><rect x="750.4779180629084" y="371.73083930153024" width="18" height="16" rx="3" fill="#fff" stroke="#ae8154"/><text x="759.4779180629084" y="383.73083930153024" text-anchor="middle" font-size="11">14</text></g><g><rect x="46.24821525339698" y="371.73083930153024" width="18" height="16" rx="3" fill="#fff" stroke="#bd6e60"/><text x="55.24821525339698" y="383.73083930153024" text-anchor="middle" font-size="11">16</text></g><g><rect x="733.2290486527698" y="261.8139059553324" width="18" height="16" rx="3" fill="#fff" stroke="#596d41"/><text x="742.2290486527698" y="273.8139059553324" text-anchor="middle" font-size="11">15</text></g><circle cx="441.9118780372765" cy="544.6062393121425" r="7" fill="none" stroke="#a45d20" stroke-dasharray="3 3"/><circle cx="441.9118780372765" cy="104.70626670789136" r="7" fill="none" stroke="#a45d20" stroke-dasharray="3 3"/><polygon points="50.0,545.0 832.4,545.0 832.4,105.0 50.0,105.0" fill="none" stroke="#234638" stroke-dasharray="8 5" stroke-width="2"/><text x="825" y="100" font-size="14">↑ N</text><text x="50" y="590" font-size="17" font-weight="600">Symbols & spaces</text><circle cx="57" cy="614" r="5" fill="#71803a" stroke="#263b2d" stroke-width="2"/><text x="72" y="618" font-size="12">Tree centre</text><circle cx="230" cy="614" r="3.5" fill="#71803a" stroke="#263b2d"/><text x="244" y="618" font-size="12">Shrub centre</text><circle cx="415" cy="614" r="2.5" fill="#71803a" stroke="#fff"/><text x="428" y="618" font-size="12">Sample perennial</text><circle cx="645" cy="614" r="8" fill="none" stroke="#765c3a" stroke-dasharray="3 3"/><text x="660" y="618" font-size="12">Mature crown envelope</text><path d="M50 642h18" stroke="#9e724b" stroke-width="5"/><text x="76" y="646" font-size="12">Path</text><rect x="225" y="635" width="18" height="12" fill="#efe3ac"/><text x="250" y="646" font-size="12">Open ground</text><rect x="405" y="635" width="18" height="12" fill="#afd7dd"/><text x="430" y="646" font-size="12">Water</text><circle cx="645" cy="642" r="7" fill="none" stroke="#a45d20" stroke-dasharray="3 3"/><text x="660" y="646" font-size="12">Visibility review prompt</text><rect x="50" y="663" width="10" height="8" fill="#183d32"/><text x="76" y="674" font-size="12">Camera marker, if drawn</text><text x="50" y="700" font-size="12">Number + pattern identify taxa. Perennial dots are samples; quantities include every draft position.</text><text x="50" y="723" font-size="17" font-weight="600">Species key · quantities are individual plants</text><g><rect x="50" y="729" width="28" height="28" fill="url(#mass-1)" stroke="#315f49"/><text x="88" y="744" font-size="12" font-weight="600">01 · Spaanse aak · 1</text><text x="88" y="760" font-size="11" fill="#536657">Acer campestre · Trees</text></g><g><rect x="460" y="729" width="28" height="28" fill="url(#mass-2)" stroke="#71803a"/><text x="498" y="744" font-size="12" font-weight="600">02 · Wilde lijsterbes · 1</text><text x="498" y="760" font-size="11" fill="#536657">Sorbus aucuparia · Trees</text></g><g><rect x="50" y="773" width="28" height="28" fill="url(#mass-3)" stroke="#b05e7e"/><text x="88" y="788" font-size="12" font-weight="600">03 · Peen · 19</text><text x="88" y="804" font-size="11" fill="#536657">Daucus carota · Flowers &amp; herbs</text></g><g><rect x="460" y="773" width="28" height="28" fill="url(#mass-4)" stroke="#4b8290"/><text x="498" y="788" font-size="12" font-weight="600">04 · Pitrus · 42</text><text x="498" y="804" font-size="11" fill="#536657">Juncus effusus · Grasses, sedges &amp; rushes</text></g><g><rect x="50" y="817" width="28" height="28" fill="url(#mass-5)" stroke="#8b6b45"/><text x="88" y="832" font-size="12" font-weight="600">05 · Rood zwenkgras · 139</text><text x="88" y="848" font-size="11" fill="#536657">Festuca rubra · Grasses, sedges &amp; rushes</text></g><g><rect x="460" y="817" width="28" height="28" fill="url(#mass-6)" stroke="#71649a"/><text x="498" y="832" font-size="12" font-weight="600">06 · Ruwe smele · 100</text><text x="498" y="848" font-size="11" fill="#536657">Deschampsia cespitosa · Grasses, sedges &amp; rushes</text></g><g><rect x="50" y="861" width="28" height="28" fill="url(#mass-7)" stroke="#aa764b"/><text x="88" y="876" font-size="12" font-weight="600">07 · Knoopkruid · 12</text><text x="88" y="892" font-size="11" fill="#536657">Centaurea jacea · Flowers &amp; herbs</text></g><g><rect x="460" y="861" width="28" height="28" fill="url(#mass-8)" stroke="#4d8059"/><text x="498" y="876" font-size="12" font-weight="600">08 · Rode klaver · 12</text><text x="498" y="892" font-size="11" fill="#536657">Trifolium pratense · Flowers &amp; herbs</text></g><g><rect x="50" y="905" width="28" height="28" fill="url(#mass-9)" stroke="#a14955"/><text x="88" y="920" font-size="12" font-weight="600">09 · Trilgras · 81</text><text x="88" y="936" font-size="11" fill="#536657">Briza media · Grasses, sedges &amp; rushes</text></g><g><rect x="460" y="905" width="28" height="28" fill="url(#mass-10)" stroke="#557ba5"/><text x="498" y="920" font-size="12" font-weight="600">10 · Blauwe knoop · 35</text><text x="498" y="936" font-size="11" fill="#536657">Succisa pratensis · Flowers &amp; herbs</text></g><g><rect x="50" y="949" width="28" height="28" fill="url(#mass-11)" stroke="#85863a"/><text x="88" y="964" font-size="12" font-weight="600">11 · Oeverzegge · 22</text><text x="88" y="980" font-size="11" fill="#536657">Carex riparia · Grasses, sedges &amp; rushes</text></g><g><rect x="460" y="949" width="28" height="28" fill="url(#mass-12)" stroke="#765a78"/><text x="498" y="964" font-size="12" font-weight="600">12 · Margriet · 4</text><text x="498" y="980" font-size="11" fill="#536657">Leucanthemum vulgare · Flowers &amp; herbs</text></g><g><rect x="50" y="993" width="28" height="28" fill="url(#mass-13)" stroke="#39776c"/><text x="88" y="1008" font-size="12" font-weight="600">13 · Smalle weegbree · 28</text><text x="88" y="1024" font-size="11" fill="#536657">Plantago lanceolata · Flowers &amp; herbs</text></g><g><rect x="460" y="993" width="28" height="28" fill="url(#mass-14)" stroke="#ae8154"/><text x="498" y="1008" font-size="12" font-weight="600">14 · Dagkoekoeksbloem · 48</text><text x="498" y="1024" font-size="11" fill="#536657">Silene dioica · Flowers &amp; herbs</text></g><g><rect x="50" y="1037" width="28" height="28" fill="url(#mass-15)" stroke="#596d41"/><text x="88" y="1052" font-size="12" font-weight="600">15 · Beemdooievaarsbek · 9</text><text x="88" y="1068" font-size="11" fill="#536657">Geranium pratense · Flowers &amp; herbs</text></g><g><rect x="460" y="1037" width="28" height="28" fill="url(#mass-16)" stroke="#bd6e60"/><text x="498" y="1052" font-size="12" font-weight="600">16 · Duizendblad · 9</text><text x="498" y="1068" font-size="11" fill="#536657">Achillea millefolium · Flowers &amp; herbs</text></g><g><rect x="50" y="1081" width="28" height="28" fill="url(#mass-17)" stroke="#55736e"/><text x="88" y="1096" font-size="12" font-weight="600">17 · Echte valeriaan · 1</text><text x="88" y="1112" font-size="11" fill="#536657">Valeriana officinalis · Flowers &amp; herbs</text></g><text x="50" y="1154" font-size="11">Verify species, spacing, soil, water depth, safety, access and root volume before use.</text></g></svg>